<svg id="Capa_1" data-name="Capa 1" xmlns="http://www.w3.org/2000/svg" viewBox="0 0 184.17 32"><defs><style>.cls-1{fill:#070308;}.cls-2{fill:#211915;}</style></defs><title>logo-wladimov-bg-white</title><polygon class="cls-1" points="0.58 30.35 6.98 30.35 3.78 23.49 0.58 30.35"/><polygon class="cls-1" points="6.4 1.65 0 1.65 13.38 30.35 16.58 23.49 6.4 1.65"/><polygon class="cls-1" points="19.2 1.65 12.8 1.65 26.18 30.35 29.38 23.49 19.2 1.65"/><polygon class="cls-1" points="32 1.65 25.6 1.65 28.8 8.51 32 1.65"/><path class="cls-2" d="M45.58,11.21h3.83l3.14,8.88,3.37-8.88h2.34L61.58,20l3.14-8.78h3.85l-5.69,15.6H60.4l-3.32-8.89-3.43,8.89H51.2Z"/><path class="cls-2" d="M70.36,5.19h3.91V26.81H70.36Z"/><path class="cls-2" d="M89.34,11.21h3.91v15.6H89.34V25.16A7.67,7.67,0,0,1,87,26.73a6.44,6.44,0,0,1-2.5.48,6.92,6.92,0,0,1-5.22-2.34A8.16,8.16,0,0,1,77.11,19a8.38,8.38,0,0,1,2.13-5.92,6.81,6.81,0,0,1,5.19-2.31,6.64,6.64,0,0,1,2.63.53,7.14,7.14,0,0,1,2.28,1.59Zm-4.12,3.21a3.93,3.93,0,0,0-3,1.29A4.61,4.61,0,0,0,81,19a4.69,4.69,0,0,0,1.22,3.32,4,4,0,0,0,3,1.31,4,4,0,0,0,3.06-1.29A4.67,4.67,0,0,0,89.51,19a4.57,4.57,0,0,0-1.21-3.3A4.1,4.1,0,0,0,85.22,14.42Z"/><path class="cls-2" d="M108.72,5.19h3.91V26.81h-3.91V25.16a7.67,7.67,0,0,1-2.3,1.57,6.44,6.44,0,0,1-2.5.48,6.94,6.94,0,0,1-5.22-2.34A8.2,8.2,0,0,1,96.49,19a8.38,8.38,0,0,1,2.13-5.92,6.81,6.81,0,0,1,5.19-2.31,6.64,6.64,0,0,1,2.63.53,7.14,7.14,0,0,1,2.28,1.59Zm-4.12,9.23a4,4,0,0,0-3,1.29,4.61,4.61,0,0,0-1.2,3.29,4.69,4.69,0,0,0,1.22,3.32,4,4,0,0,0,3,1.31,4,4,0,0,0,3.06-1.29A4.67,4.67,0,0,0,108.89,19a4.57,4.57,0,0,0-1.21-3.3A4.1,4.1,0,0,0,104.6,14.42Z"/><path class="cls-2" d="M118.11,4.79a2.42,2.42,0,0,1,1.77.74,2.57,2.57,0,0,1,0,3.6,2.38,2.38,0,0,1-1.75.73,2.41,2.41,0,0,1-1.78-.75,2.51,2.51,0,0,1-.73-1.83,2.4,2.4,0,0,1,.73-1.76A2.36,2.36,0,0,1,118.11,4.79Zm-2,6.42h3.91v15.6h-3.91Z"/><path class="cls-2" d="M123.6,11.21h3.91V13a6.77,6.77,0,0,1,2.23-1.64,6.43,6.43,0,0,1,2.68-.55,5,5,0,0,1,2.64.72A5.2,5.2,0,0,1,137,13.62a6.33,6.33,0,0,1,2.29-2.09,6.2,6.2,0,0,1,3-.72,5.54,5.54,0,0,1,2.93.77,4.48,4.48,0,0,1,1.81,2,10.7,10.7,0,0,1,.56,4.05v9.15h-3.95V18.9a6.81,6.81,0,0,0-.66-3.6,2.26,2.26,0,0,0-2-.93,3,3,0,0,0-1.8.57,3.41,3.41,0,0,0-1.19,1.58,10.16,10.16,0,0,0-.38,3.25v7h-4V19.25a11,11,0,0,0-.3-3,2.84,2.84,0,0,0-.93-1.4,2.47,2.47,0,0,0-1.5-.45,2.91,2.91,0,0,0-1.77.58,3.43,3.43,0,0,0-1.19,1.62,9.88,9.88,0,0,0-.4,3.3v6.94H123.6Z"/><path class="cls-2" d="M158.55,10.81a8.34,8.34,0,0,1,4.15,1.1A8.11,8.11,0,0,1,166.82,19a8.18,8.18,0,0,1-1.1,4.12,7.86,7.86,0,0,1-3,3,8.26,8.26,0,0,1-4.17,1.08,7.82,7.82,0,0,1-5.73-2.39,7.92,7.92,0,0,1-2.37-5.8,7.93,7.93,0,0,1,2.68-6.09A7.86,7.86,0,0,1,158.55,10.81Zm.06,3.68a4.07,4.07,0,0,0-3,1.27A4.55,4.55,0,0,0,154.36,19a4.59,4.59,0,0,0,1.2,3.3,4,4,0,0,0,3,1.26,4.08,4.08,0,0,0,3.06-1.28A4.56,4.56,0,0,0,162.88,19a4.52,4.52,0,0,0-1.2-3.26A4,4,0,0,0,158.61,14.49Z"/><path class="cls-2" d="M168.35,11.21h4l3.94,9.21,3.93-9.21h4l-6.64,15.6H175Z"/></svg>